<svg width="24" height="24" viewBox="0 0 24 24" fill="none" xmlns="http://www.w3.org/2000/svg">
<circle cx="12" cy="12" r="12" fill="#6F6F6F"/>
<path d="M12.9301 15.7324H10.5961C10.6026 15.14 10.6514 14.6322 10.7426 14.209C10.8402 13.7858 10.9997 13.4049 11.2211 13.0664C11.4424 12.7214 11.7419 12.3698 12.1195 12.0117C12.419 11.7318 12.6859 11.4681 12.9203 11.2207C13.1612 10.9668 13.35 10.7031 13.4867 10.4297C13.6234 10.1497 13.6918 9.83398 13.6918 9.48242C13.6918 9.08529 13.6267 8.75326 13.4965 8.48633C13.3728 8.2194 13.1872 8.01758 12.9398 7.88086C12.699 7.73763 12.3962 7.66602 12.0316 7.66602C11.7322 7.66602 11.449 7.72786 11.182 7.85156C10.9151 7.97526 10.7003 8.16732 10.5375 8.42773C10.3747 8.68164 10.2868 9.01367 10.2738 9.42383H7.68594C7.70547 8.57096 7.90729 7.86133 8.29141 7.29492C8.67552 6.72201 9.1931 6.29557 9.84414 6.01562C10.4952 5.72917 11.2243 5.58594 12.0316 5.58594C12.9236 5.58594 13.6853 5.73568 14.3168 6.03516C14.9548 6.32812 15.4398 6.75781 15.7719 7.32422C16.1104 7.89062 16.2797 8.57422 16.2797 9.375C16.2797 9.94792 16.169 10.4622 15.9477 10.918C15.7263 11.3672 15.4333 11.7871 15.0687 12.1777C14.7042 12.5684 14.3103 12.9622 13.8871 13.3594C13.516 13.6914 13.2654 14.0462 13.1352 14.4238C13.0049 14.8014 12.9366 15.2376 12.9301 15.7324ZM10.352 18.7695C10.352 18.3789 10.4822 18.0534 10.7426 17.793C11.0095 17.5326 11.3676 17.4023 11.8168 17.4023C12.266 17.4023 12.6208 17.5326 12.8812 17.793C13.1482 18.0534 13.2816 18.3789 13.2816 18.7695C13.2816 19.1471 13.1482 19.4661 12.8812 19.7266C12.6208 19.987 12.266 20.1172 11.8168 20.1172C11.3676 20.1172 11.0095 19.987 10.7426 19.7266C10.4822 19.4661 10.352 19.1471 10.352 18.7695Z" fill="white"/>
</svg>
